<svg width="64" height="65" viewBox="0 0 64 65" fill="none" xmlns="http://www.w3.org/2000/svg">
<rect x="2" y="2" width="60" height="60" rx="30" fill="url(#paint0_linear_654_142)"/>
<g filter="url(#filter0_f_654_142)">
<rect x="2.7793" y="2.7793" width="58.4416" height="58.4416" rx="29.2208" fill="url(#paint1_linear_654_142)"/>
<rect x="3.0293" y="3.0293" width="57.9416" height="57.9416" rx="28.9708" stroke="url(#paint2_linear_654_142)" stroke-width="0.5"/>
</g>
<g filter="url(#filter1_f_654_142)">
<path d="M35.5422 27.7956V23.0408C35.5422 20.8943 36.0666 19.8085 39.7508 19.8085H44.3734V11.8215H36.6599C27.2078 11.8215 24.0893 15.7402 24.0893 22.4667V27.7956H17.8799V35.7826H24.0893V59.7436H35.5422V35.7826H43.3247L44.3734 27.7956H35.5422Z" fill="#13488C" fill-opacity="0.5"/>
</g>
<mask id="path-5-inside-1_654_142" fill="white">
<path fill-rule="evenodd" clip-rule="evenodd" d="M37.6204 22.8088V27.7955H45.9321L44.9451 36.1721H37.6204V61.302H37.6145V61.475C34.7726 62.2342 29.1268 62.0666 26.8394 61.5581V60.4519H26.8412V36.1721H20.9971V27.7955H26.8412V22.2067C26.8412 15.152 29.7763 11.0422 38.6724 11.0422H45.9321V19.4189H41.5815C38.114 19.4189 37.6204 20.5576 37.6204 22.8088Z"/>
</mask>
<path fill-rule="evenodd" clip-rule="evenodd" d="M37.6204 22.8088V27.7955H45.9321L44.9451 36.1721H37.6204V61.302H37.6145V61.475C34.7726 62.2342 29.1268 62.0666 26.8394 61.5581V60.4519H26.8412V36.1721H20.9971V27.7955H26.8412V22.2067C26.8412 15.152 29.7763 11.0422 38.6724 11.0422H45.9321V19.4189H41.5815C38.114 19.4189 37.6204 20.5576 37.6204 22.8088Z" fill="white" fill-opacity="0.9"/>
<path d="M37.6204 27.7955H37.1204V28.2955H37.6204V27.7955ZM45.9321 27.7955L46.4287 27.854L46.4945 27.2955H45.9321V27.7955ZM44.9451 36.1721V36.6721H45.3897L45.4417 36.2306L44.9451 36.1721ZM37.6204 36.1721V35.6721H37.1204V36.1721H37.6204ZM37.6204 61.302V61.802H38.1204V61.302H37.6204ZM37.6145 61.302V60.802H37.1145V61.302H37.6145ZM37.6145 61.475L37.7435 61.958L38.1145 61.8589V61.475H37.6145ZM26.8394 61.5581H26.3394V61.9592L26.7309 62.0462L26.8394 61.5581ZM26.8394 60.4519V59.9519H26.3394V60.4519H26.8394ZM26.8412 60.4519V60.9519H27.3412V60.4519H26.8412ZM26.8412 36.1721H27.3412V35.6721H26.8412V36.1721ZM20.9971 36.1721H20.4971V36.6721H20.9971V36.1721ZM20.9971 27.7955V27.2955H20.4971V27.7955H20.9971ZM26.8412 27.7955V28.2955H27.3412V27.7955H26.8412ZM45.9321 11.0422H46.4321V10.5422H45.9321V11.0422ZM45.9321 19.4189V19.9189H46.4321V19.4189H45.9321ZM38.1204 27.7955V22.8088H37.1204V27.7955H38.1204ZM45.9321 27.2955H37.6204V28.2955H45.9321V27.2955ZM45.4417 36.2306L46.4287 27.854L45.4356 27.737L44.4486 36.1136L45.4417 36.2306ZM37.6204 36.6721H44.9451V35.6721H37.6204V36.6721ZM38.1204 61.302V36.1721H37.1204V61.302H38.1204ZM37.6145 61.802H37.6204V60.802H37.6145V61.802ZM37.1145 61.302V61.475H38.1145V61.302H37.1145ZM37.4854 60.9919C36.1304 61.3539 34.0624 61.5024 32.0216 61.4919C29.9834 61.4815 28.0409 61.313 26.9479 61.07L26.7309 62.0462C27.9253 62.3117 29.9494 62.4813 32.0164 62.4919C34.0808 62.5025 36.2567 62.3552 37.7435 61.958L37.4854 60.9919ZM27.3394 61.5581V60.4519H26.3394V61.5581H27.3394ZM26.8394 60.9519H26.8412V59.9519H26.8394V60.9519ZM26.3412 36.1721V60.4519H27.3412V36.1721H26.3412ZM20.9971 36.6721H26.8412V35.6721H20.9971V36.6721ZM20.4971 27.7955V36.1721H21.4971V27.7955H20.4971ZM26.8412 27.2955H20.9971V28.2955H26.8412V27.2955ZM26.3412 22.2067V27.7955H27.3412V22.2067H26.3412ZM38.6724 10.5422C34.1584 10.5422 31.0406 11.584 29.0613 13.6314C27.0846 15.6761 26.3412 18.6234 26.3412 22.2067H27.3412C27.3412 18.7353 28.0654 16.1004 29.7803 14.3265C31.4925 12.5553 34.2903 11.5422 38.6724 11.5422V10.5422ZM45.9321 10.5422H38.6724V11.5422H45.9321V10.5422ZM46.4321 19.4189V11.0422H45.4321V19.4189H46.4321ZM41.5815 19.9189H45.9321V18.9189H41.5815V19.9189ZM38.1204 22.8088C38.1204 21.6814 38.2557 21.0284 38.6571 20.6202C39.062 20.2086 39.8669 19.9189 41.5815 19.9189V18.9189C39.8286 18.9189 38.6529 19.1985 37.9442 19.919C37.232 20.643 37.1204 21.6849 37.1204 22.8088H38.1204Z" fill="url(#paint3_linear_654_142)" mask="url(#path-5-inside-1_654_142)"/>
<defs>
<filter id="filter0_f_654_142" x="0.779297" y="0.779297" width="62.4414" height="62.4417" filterUnits="userSpaceOnUse" color-interpolation-filters="sRGB">
<feFlood flood-opacity="0" result="BackgroundImageFix"/>
<feBlend mode="normal" in="SourceGraphic" in2="BackgroundImageFix" result="shape"/>
<feGaussianBlur stdDeviation="1" result="effect1_foregroundBlur_654_142"/>
</filter>
<filter id="filter1_f_654_142" x="12.8799" y="6.82153" width="36.4932" height="57.9221" filterUnits="userSpaceOnUse" color-interpolation-filters="sRGB">
<feFlood flood-opacity="0" result="BackgroundImageFix"/>
<feBlend mode="normal" in="SourceGraphic" in2="BackgroundImageFix" result="shape"/>
<feGaussianBlur stdDeviation="2.5" result="effect1_foregroundBlur_654_142"/>
</filter>
<linearGradient id="paint0_linear_654_142" x1="30.8312" y1="60.4416" x2="32" y2="5.31169" gradientUnits="userSpaceOnUse">
<stop stop-color="#004DAE"/>
<stop offset="0.869762" stop-color="#4497FF"/>
</linearGradient>
<linearGradient id="paint1_linear_654_142" x1="32.0001" y1="9.20786" x2="32.0001" y2="54.7923" gradientUnits="userSpaceOnUse">
<stop stop-color="#1778F2"/>
<stop offset="1" stop-color="#1778F2" stop-opacity="0.62"/>
</linearGradient>
<linearGradient id="paint2_linear_654_142" x1="32.0001" y1="2.7793" x2="32.0001" y2="61.2209" gradientUnits="userSpaceOnUse">
<stop stop-color="#7CB4FB"/>
<stop offset="1" stop-color="#0B6280"/>
</linearGradient>
<linearGradient id="paint3_linear_654_142" x1="33.4646" y1="11.0422" x2="33.4646" y2="61.9924" gradientUnits="userSpaceOnUse">
<stop stop-color="white"/>
<stop offset="1" stop-color="white" stop-opacity="0"/>
</linearGradient>
</defs>
</svg>
