<svg width="70" height="70" viewBox="0 0 70 70" fill="none" xmlns="http://www.w3.org/2000/svg">
<rect x="5" y="5" width="60" height="60" rx="30" fill="url(#paint0_linear_654_146)"/>
<g filter="url(#filter0_f_654_146)">
<rect x="5.7793" y="5.7793" width="58.4416" height="58.4416" rx="29.2208" fill="url(#paint1_linear_654_146)"/>
<rect x="6.0293" y="6.0293" width="57.9416" height="57.9416" rx="28.9708" stroke="url(#paint2_linear_654_146)" stroke-width="0.5"/>
</g>
<g filter="url(#filter1_f_654_146)">
<path fill-rule="evenodd" clip-rule="evenodd" d="M24.4807 23.1168C24.4807 25.161 22.7363 26.8181 20.5846 26.8181C18.4328 26.8181 16.6885 25.161 16.6885 23.1168C16.6885 21.0727 18.4328 19.4155 20.5846 19.4155C22.7363 19.4155 24.4807 21.0727 24.4807 23.1168ZM16.6885 52.922H23.8684V28.7662H16.6885V52.922ZM43.015 52.922H50.195V39.2812C50.195 36.0178 49.4363 33.694 47.9117 31.962C46.3968 30.2324 44.4127 29.544 41.9596 29.544C38.7334 29.544 36.3807 31.1818 34.9088 33.5973H34.7604L34.3225 28.7662H28.6551C28.7508 31.1818 28.6551 52.922 28.6551 52.922H35.835V37.7956C36.4286 35.9187 37.6109 34.9815 39.4753 34.9815C41.8279 34.9815 43.015 36.6555 43.015 40.018V52.922Z" fill="#0B4C8C"/>
</g>
<mask id="path-5-inside-1_654_146" fill="white">
<path fill-rule="evenodd" clip-rule="evenodd" d="M27.5979 21.1688C27.5979 23.213 25.8535 24.8701 23.7018 24.8701C21.55 24.8701 19.8057 23.213 19.8057 21.1688C19.8057 19.1247 21.55 17.4675 23.7018 17.4675C25.8535 17.4675 27.5979 19.1247 27.5979 21.1688ZM19.8057 50.974H26.9856V26.8182H19.8057V50.974ZM46.1322 50.974H53.3122V37.3332C53.3122 34.0698 52.5535 31.746 51.0289 30.014C49.514 28.2844 47.5299 27.596 45.0767 27.596C41.8505 27.596 39.4979 29.2338 38.026 31.6493H37.8776L37.4397 26.8182H31.7723C31.868 29.2338 31.7723 50.974 31.7723 50.974H38.9522V35.8476C39.5458 33.9707 40.7281 33.0335 42.5925 33.0335C44.9451 33.0335 46.1322 34.7075 46.1322 38.07V50.974Z"/>
</mask>
<path fill-rule="evenodd" clip-rule="evenodd" d="M27.5979 21.1688C27.5979 23.213 25.8535 24.8701 23.7018 24.8701C21.55 24.8701 19.8057 23.213 19.8057 21.1688C19.8057 19.1247 21.55 17.4675 23.7018 17.4675C25.8535 17.4675 27.5979 19.1247 27.5979 21.1688ZM19.8057 50.974H26.9856V26.8182H19.8057V50.974ZM46.1322 50.974H53.3122V37.3332C53.3122 34.0698 52.5535 31.746 51.0289 30.014C49.514 28.2844 47.5299 27.596 45.0767 27.596C41.8505 27.596 39.4979 29.2338 38.026 31.6493H37.8776L37.4397 26.8182H31.7723C31.868 29.2338 31.7723 50.974 31.7723 50.974H38.9522V35.8476C39.5458 33.9707 40.7281 33.0335 42.5925 33.0335C44.9451 33.0335 46.1322 34.7075 46.1322 38.07V50.974Z" fill="white" fill-opacity="0.9"/>
<path d="M26.9856 50.974V51.474H27.4856V50.974H26.9856ZM19.8057 50.974H19.3057V51.474H19.8057V50.974ZM26.9856 26.8182H27.4856V26.3182H26.9856V26.8182ZM19.8057 26.8182V26.3182H19.3057V26.8182H19.8057ZM53.3122 50.974V51.474H53.8122V50.974H53.3122ZM46.1322 50.974H45.6322V51.474H46.1322V50.974ZM51.0289 30.014L50.6528 30.3434L50.6536 30.3444L51.0289 30.014ZM38.026 31.6493V32.1493H38.3069L38.453 31.9095L38.026 31.6493ZM37.8776 31.6493L37.3797 31.6945L37.4209 32.1493H37.8776V31.6493ZM37.4397 26.8182L37.9376 26.773L37.8964 26.3182H37.4397V26.8182ZM31.7723 26.8182V26.3182H31.2521L31.2727 26.838L31.7723 26.8182ZM31.7723 50.974L31.2723 50.9718L31.2701 51.474H31.7723V50.974ZM38.9522 50.974V51.474H39.4522V50.974H38.9522ZM38.9522 35.8476L38.4755 35.6969L38.4522 35.7705V35.8476H38.9522ZM23.7018 25.3701C26.1052 25.3701 28.0979 23.513 28.0979 21.1688H27.0979C27.0979 22.913 25.6019 24.3701 23.7018 24.3701V25.3701ZM19.3057 21.1688C19.3057 23.513 21.2983 25.3701 23.7018 25.3701V24.3701C21.8017 24.3701 20.3057 22.913 20.3057 21.1688H19.3057ZM23.7018 16.9675C21.2983 16.9675 19.3057 18.8247 19.3057 21.1688H20.3057C20.3057 19.4247 21.8017 17.9675 23.7018 17.9675V16.9675ZM28.0979 21.1688C28.0979 18.8247 26.1052 16.9675 23.7018 16.9675V17.9675C25.6019 17.9675 27.0979 19.4247 27.0979 21.1688H28.0979ZM26.9856 50.474H19.8057V51.474H26.9856V50.474ZM26.4856 26.8182V50.974H27.4856V26.8182H26.4856ZM19.8057 27.3182H26.9856V26.3182H19.8057V27.3182ZM20.3057 50.974V26.8182H19.3057V50.974H20.3057ZM53.3122 50.474H46.1322V51.474H53.3122V50.474ZM52.8122 37.3332V50.974H53.8122V37.3332H52.8122ZM50.6536 30.3444C52.0737 31.9576 52.8122 34.1491 52.8122 37.3332H53.8122C53.8122 33.9904 53.0333 31.5343 51.4042 29.6836L50.6536 30.3444ZM45.0767 28.096C47.4265 28.096 49.2567 28.7496 50.6528 30.3434L51.405 29.6845C49.7712 27.8193 47.6332 27.096 45.0767 27.096V28.096ZM38.453 31.9095C39.8474 29.6211 42.0491 28.096 45.0767 28.096V27.096C41.652 27.096 39.1484 28.8465 37.599 31.3892L38.453 31.9095ZM37.8776 32.1493H38.026V31.1493H37.8776V32.1493ZM36.9417 26.8633L37.3797 31.6945L38.3756 31.6042L37.9376 26.773L36.9417 26.8633ZM31.7723 27.3182H37.4397V26.3182H31.7723V27.3182ZM31.7723 50.974C32.2723 50.9762 32.2723 50.9761 32.2723 50.976C32.2723 50.9758 32.2723 50.9756 32.2723 50.9752C32.2723 50.9746 32.2723 50.9736 32.2723 50.9723C32.2723 50.9696 32.2723 50.9657 32.2723 50.9604C32.2724 50.95 32.2724 50.9344 32.2725 50.9137C32.2727 50.8725 32.273 50.8113 32.2733 50.7314C32.274 50.5716 32.275 50.3368 32.2762 50.0372C32.2786 49.4379 32.282 48.5792 32.2857 47.5412C32.2932 45.4651 32.3022 42.6718 32.3082 39.803C32.3201 34.0748 32.3203 28.0198 32.2719 26.7984L31.2727 26.838C31.32 28.0321 31.3202 34.055 31.3082 39.8009C31.3022 42.6691 31.2932 45.4618 31.2857 47.5376C31.282 48.5754 31.2786 49.434 31.2762 50.0331C31.275 50.3327 31.274 50.5674 31.2733 50.7272C31.273 50.8071 31.2727 50.8682 31.2725 50.9094C31.2725 50.93 31.2724 50.9456 31.2723 50.9561C31.2723 50.9613 31.2723 50.9652 31.2723 50.9679C31.2723 50.9692 31.2723 50.9702 31.2723 50.9708C31.2723 50.9712 31.2723 50.9714 31.2723 50.9716C31.2723 50.9717 31.2723 50.9718 31.7723 50.974ZM38.9522 50.474H31.7723V51.474H38.9522V50.474ZM38.4522 35.8476V50.974H39.4522V35.8476H38.4522ZM42.5925 32.5335C41.5735 32.5335 40.6969 32.7912 39.9888 33.3421C39.2843 33.89 38.7934 34.6917 38.4755 35.6969L39.429 35.9984C39.7046 35.1266 40.1016 34.5212 40.6028 34.1314C41.1003 33.7444 41.747 33.5335 42.5925 33.5335V32.5335ZM46.6322 38.07C46.6322 36.3451 46.3304 34.9641 45.6533 34.0029C44.9538 33.0097 43.9034 32.5335 42.5925 32.5335V33.5335C43.6342 33.5335 44.3537 33.8943 44.8358 34.5787C45.3404 35.2951 45.6322 36.4324 45.6322 38.07H46.6322ZM46.6322 50.974V38.07H45.6322V50.974H46.6322Z" fill="url(#paint3_linear_654_146)" mask="url(#path-5-inside-1_654_146)"/>
<defs>
<filter id="filter0_f_654_146" x="0.779297" y="0.779297" width="68.4414" height="68.4417" filterUnits="userSpaceOnUse" color-interpolation-filters="sRGB">
<feFlood flood-opacity="0" result="BackgroundImageFix"/>
<feBlend mode="normal" in="SourceGraphic" in2="BackgroundImageFix" result="shape"/>
<feGaussianBlur stdDeviation="2.5" result="effect1_foregroundBlur_654_146"/>
</filter>
<filter id="filter1_f_654_146" x="6.68848" y="9.41553" width="53.5068" height="53.5066" filterUnits="userSpaceOnUse" color-interpolation-filters="sRGB">
<feFlood flood-opacity="0" result="BackgroundImageFix"/>
<feBlend mode="normal" in="SourceGraphic" in2="BackgroundImageFix" result="shape"/>
<feGaussianBlur stdDeviation="5" result="effect1_foregroundBlur_654_146"/>
</filter>
<linearGradient id="paint0_linear_654_146" x1="33.8312" y1="63.4416" x2="35" y2="8.31169" gradientUnits="userSpaceOnUse">
<stop stop-color="#004081"/>
<stop offset="1" stop-color="#5BA9F8"/>
</linearGradient>
<linearGradient id="paint1_linear_654_146" x1="35.0001" y1="12.2079" x2="35.0001" y2="57.7923" gradientUnits="userSpaceOnUse">
<stop stop-color="#0A66C2" stop-opacity="0.56"/>
<stop offset="1" stop-color="#0A66C2"/>
</linearGradient>
<linearGradient id="paint2_linear_654_146" x1="35.0001" y1="5.7793" x2="35.0001" y2="64.2209" gradientUnits="userSpaceOnUse">
<stop stop-color="#59ACFF"/>
<stop offset="1" stop-color="#013162"/>
</linearGradient>
<linearGradient id="paint3_linear_654_146" x1="36.5589" y1="17.4675" x2="36.5589" y2="50.974" gradientUnits="userSpaceOnUse">
<stop stop-color="white"/>
<stop offset="1" stop-color="white" stop-opacity="0"/>
</linearGradient>
</defs>
</svg>
